<?xml version="1.0" encoding="UTF-8"?>
<svg width="136px" height="150px" viewBox="0 0 136 150" version="1.1" xmlns="http://www.w3.org/2000/svg" xmlns:xlink="http://www.w3.org/1999/xlink">
    <!-- Generator: Sketch 63.1 (92452) - https://sketch.com -->
    <title>Group 130</title>
    <desc>Created with Sketch.</desc>
    <defs>
        <polygon id="path-1" points="0 0.167038683 48.2459358 0.167038683 48.2459358 1.76321975 0 1.76321975"></polygon>
    </defs>
    <g id="Home" stroke="none" stroke-width="1" fill="none" fill-rule="evenodd">
        <g id="Home-Flight-K-Diadieamphobien" transform="translate(-172.000000, -1127.000000)">
            <g id="danh-cho-thanh-vien" transform="translate(165.000000, 1127.000000)">
                <g id="Group-130" transform="translate(7.000000, 0.000000)">
                    <g id="Group-35" transform="translate(41.000000, 0.000000)">
                        <path d="M76.8991448,33.6273875 L78.7991448,39.1132597 C78.8794425,39.345254 78.7422202,39.5832937 78.5081131,39.6645295 L75.8873194,40.5762597 C75.6871409,40.6461602 75.4296607,40.5456545 75.3493631,40.3136602 L73.4493631,34.8277881 C71.4162877,34.7544869 69.5234504,33.4709614 68.8086885,31.4071943 C67.8896012,28.7536176 69.295752,25.8419756 71.9519821,24.9177767 C74.6063274,23.9943335 77.5098591,25.406325 78.4289464,28.0599017 C79.1437083,30.1236687 78.4515655,32.3068335 76.8991448,33.6273875 L76.8991448,33.6273875 Z M61.0729742,14.0472937 C59.9171409,10.7105807 61.6821806,7.05345852 65.0113274,5.8949983 C68.3385893,4.73729375 71.9862877,6.51125682 73.142121,9.84796989 L74.2855139,13.1491659 L62.2163671,17.3484898 L61.0729742,14.0472937 Z M81.9024782,10.4989898 L79.2658512,11.4163875 L78.1224583,8.11519148 C76.0136091,2.02628523 69.3530536,-1.20689943 63.2828552,0.904853409 C57.2103948,3.01773977 53.9879345,9.69003239 56.0971607,15.7785608 L57.2405536,19.0797568 L54.595256,20.0001773 C52.5384306,20.715808 51.4334901,22.9972114 52.148252,25.0613562 L59.5887877,46.5431233 C60.3144821,48.6382511 62.5937282,49.7472142 64.6505536,49.0315835 L91.9577758,39.5300182 C94.0481528,38.8026744 95.1538472,36.5159812 94.4281528,34.4212312 L86.9876171,12.9390864 C86.2728552,10.8753193 83.9928552,9.77164602 81.9024782,10.4989898 L81.9024782,10.4989898 Z" id="Fill-1" fill="#E9B600"></path>
                        <path d="M63.8406786,116.624035 C63.1918889,115.356757 64.7107579,113.999552 66.110123,113.749043 C67.5091111,113.498535 69.0935754,113.690478 70.2075635,112.805953 C71.6951429,111.6252 71.6189921,109.050214 73.2667897,108.107879 C74.589627,107.351063 76.3410952,108.073117 77.7423452,107.474995 C79.4836349,106.73216 79.9733373,104.301132 81.6814524,103.484617 C83.043119,102.833975 84.8232381,103.569632 85.5183968,104.911345 C86.2135556,106.253058 85.893873,107.987347 84.9303016,109.15072 C84.1767103,110.060183 83.0608373,110.697978 82.592623,111.783137 C81.8593889,113.482288 83.0167302,115.541899 82.3419286,117.265231 C81.095996,120.448541 75.2090119,119.490336 74.186631,122.752614 C73.9589325,123.478825 74.0546865,124.261711 73.9955,125.020793 C73.8190714,127.278393 72.2312143,129.250345 70.2701429,130.374799 C68.3090714,131.499254 66.014746,131.889186 63.7607579,132.047501 C62.8397857,132.111734 61.8690516,132.131004 61.0483571,131.707822 C60.2755397,131.3092 59.7379603,130.568254 59.318754,129.805393 C56.6120079,124.883637 55.4961349,118.469788 63.8406786,116.624035" id="Fill-3" fill="#4ABB9A"></path>
                        <path d="M20.4260933,114.008016 C21.881629,113.044143 21.072244,110.675459 19.7264107,109.563095 C18.3802004,108.450732 16.5702996,107.699584 15.9098234,106.081291 C15.0284345,103.920419 16.657006,101.212055 15.4604583,99.2091207 C14.5002798,97.6014077 12.1931369,97.3161378 11.0535139,95.8308452 C9.63756151,93.9854702 10.5743671,91.0893196 9.23795833,89.1850014 C8.17260119,87.6672145 5.82625198,87.3792997 4.27647024,88.3949361 C2.72668849,89.4105724 2.02662897,91.458848 2.358375,93.2845753 C2.61774008,94.7124361 3.42825595,96.0681293 3.27708532,97.5114815 C3.04033929,99.771348 0.565061508,101.275911 0.25103373,103.526709 C-0.328767857,107.683714 6.54365278,110.211848 5.67734325,114.318601 C5.48432738,115.232598 4.91131151,116.012462 4.51887103,116.859959 C3.35097421,119.381291 3.86442659,122.448982 5.2867877,124.835425 C6.70877183,127.221868 8.92845437,129.024169 11.2442679,130.553669 C12.190498,131.178618 13.2174028,131.785053 14.3498631,131.827749 C15.4155972,131.8678 16.4357163,131.399277 17.3427401,130.83705 C23.1950417,127.205999 28.2424821,121.019232 20.4260933,114.008016" id="Fill-5" fill="#FFAB27"></path>
                        <path d="M58.6127004,119.220482 C60.6484147,118.340491 62.4813115,116.71313 64.0013115,115.140934 C68.1002599,110.900425 70.6411329,105.362411 71.9775417,99.6615474 C73.1869067,94.5028855 73.4568274,89.1689054 73.204248,83.8893344 C73.1827599,83.4423486 72.4864702,83.4397037 72.5079583,83.8893344 C73.0760734,95.7505162 70.7263313,110.306082 60.1345853,117.525866 C59.5427202,117.9294 58.9214504,118.332556 58.2613512,118.617826 C57.8511925,118.795411 58.2051806,119.396556 58.6127004,119.220482" id="Fill-7" fill="#FC816C"></path>
                        <path d="M72.0735218,97.665754 C72.0735218,97.665754 72.7441766,93.8231119 77.8236607,93.2147881 C77.8236607,93.2147881 75.9707837,97.7621034 72.0735218,97.665754" id="Fill-9" fill="#FC816C"></path>
                        <path d="M70.4084206,103.345081 C70.4084206,103.345081 71.9559405,99.7657938 77.0365556,100.362782 C77.0365556,100.362782 74.175623,104.350893 70.4084206,103.345081" id="Fill-11" fill="#FC816C"></path>
                        <path d="M68.2506012,108.350868 C68.2506012,108.350868 70.558875,105.209877 75.3767321,106.932831 C75.3767321,106.932831 71.6969901,110.176973 68.2506012,108.350868" id="Fill-13" fill="#FC816C"></path>
                        <path d="M72.8535774,91.6991926 C72.8535774,91.6991926 73.5129226,87.921917 78.5060774,87.3237949 C78.5060774,87.3237949 76.6848671,91.7940307 72.8535774,91.6991926" id="Fill-15" fill="#FC816C"></path>
                        <path d="M72.9214722,85.1348114 C72.9214722,85.1348114 70.0782579,82.5685159 72.2248056,78.010621 C72.2248056,78.010621 75.0363532,81.9314761 72.9214722,85.1348114" id="Fill-17" fill="#FC816C"></path>
                        <path d="M72.9388135,89.0282352 C72.9388135,89.0282352 69.1761349,88.3322523 68.6261151,83.3224597 C68.6261151,83.3224597 73.068873,85.1893716 72.9388135,89.0282352" id="Fill-19" fill="#FC816C"></path>
                        <path d="M72.5634504,94.7832057 C72.5634504,94.7832057 68.8007718,94.0872227 68.250752,89.0774301 C68.250752,89.0774301 72.6935099,90.944342 72.5634504,94.7832057" id="Fill-21" fill="#FC816C"></path>
                        <path d="M71.5865337,100.173144 C71.5865337,100.173144 67.8819107,99.2145616 67.6836171,94.1783202 C67.6836171,94.1783202 71.985006,96.3527946 71.5865337,100.173144" id="Fill-23" fill="#FC816C"></path>
                        <path d="M69.8794365,105.557793 C69.8794365,105.557793 66.1748135,104.59921 65.9765198,99.5629688 C65.9765198,99.5629688 70.2779087,101.737443 69.8794365,105.557793" id="Fill-25" fill="#FC816C"></path>
                        <path d="M59.2591528,132.739441 L21.1370099,132.739441 C16.7338353,132.739441 13.1645496,129.162043 13.1645496,124.748861 L13.1645496,34.4728443 C13.1645496,30.0600403 16.7338353,26.4822648 21.1370099,26.4822648 L59.2591528,26.4822648 C63.6623274,26.4822648 67.2316131,30.0600403 67.2316131,34.4728443 L67.2316131,124.748861 C67.2316131,129.162043 63.6623274,132.739441 59.2591528,132.739441" id="Fill-27" fill="#00C56C"></path>
                        <path d="M59.1522024,128.983967 L21.2438095,128.983967 C18.1600794,128.983967 15.6602976,126.478504 15.6602976,123.387765 L15.6602976,35.2030974 C15.6602976,32.1123588 18.1600794,29.6068957 21.2438095,29.6068957 L59.1522024,29.6068957 C62.2359325,29.6068957 64.7357143,32.1123588 64.7357143,35.2030974 L64.7357143,123.387765 C64.7357143,126.478504 62.2359325,128.983967 59.1522024,128.983967" id="Fill-29" fill="#F1ECEC"></path>
                        <path d="M54.8827063,29.606858 L51.6911587,29.606858 C50.712131,29.606858 49.9182024,30.4025909 49.9182024,31.3838437 L49.9182024,32.653767 C49.9182024,33.6353977 49.1242738,34.4311307 48.144869,34.4311307 L33.9125873,34.4311307 C32.9335595,34.4311307 32.139631,33.6353977 32.139631,32.653767 L32.139631,31.3838437 C32.139631,30.4025909 31.3457024,29.606858 30.3666746,29.606858 L21.3039762,29.606858 L21.3039762,28.6951278 L54.8827063,28.6951278 L54.8827063,29.606858 Z" id="Fill-31" fill="#4ABB9A"></path>
                        <path d="M41.5615952,44.9224503 C41.7700675,44.8109872 41.9133214,44.5933509 41.9133214,44.3405753 C41.9133214,43.9744474 41.6173889,43.6782202 41.2528452,43.6782202 C40.8875476,43.6782202 40.5919921,43.9744474 40.5919921,44.3405753 C40.5919921,44.5933509 40.735623,44.8109872 40.9437183,44.9224503 C40.5263968,45.0546946 40.2217937,45.4472713 40.2217937,45.9074815 L40.2217937,46.4285241 L42.2835198,46.4285241 L42.2835198,45.9074815 C42.2835198,45.4472713 41.9789167,45.0546946 41.5615952,44.9224503" id="Fill-33" fill="#34336C"></path>
                    </g>
                    <path d="M70.1086076,50 C70.4234202,50 70.6770534,49.9097594 70.8695072,49.7292781 C71.061961,49.5487968 71.1686406,49.3014706 71.1895462,48.9872995 L71.1895462,48.9872995 L70.6361647,48.9872995 C70.6238673,49.165107 70.5756001,49.2964572 70.4913632,49.3813503 C70.4071262,49.4662433 70.279541,49.5086898 70.1086076,49.5086898 C69.9192282,49.5086898 69.7805754,49.4358289 69.6926492,49.290107 C69.604723,49.144385 69.5607599,48.9137701 69.5607599,48.598262 L69.5607599,48.598262 L69.5607599,48.3776738 C69.5632194,48.0755348 69.6102568,47.852607 69.7018722,47.7088904 C69.7934876,47.5651738 69.9315255,47.4933155 70.115986,47.4933155 C70.2856897,47.4933155 70.4120451,47.535762 70.4950524,47.6206551 C70.5780596,47.7055481 70.6263268,47.842246 70.6398539,48.0307487 L70.6398539,48.0307487 L71.1932354,48.0307487 C71.1637217,47.7045455 71.0542751,47.4512032 70.8648957,47.2707219 C70.6755162,47.0902406 70.4258797,47 70.115986,47 C69.892174,47 69.6957235,47.0571524 69.5266347,47.1714572 C69.3575459,47.285762 69.2275013,47.4498663 69.1365008,47.6637701 C69.0455003,47.8776738 69,48.125 69,48.4057487 L69,48.4057487 L69,48.5842246 C69,49.0240642 69.0986864,49.3699866 69.2960591,49.621992 C69.4934318,49.8739973 69.7642813,50 70.1086076,50 Z M72.0509767,49.959893 L72.0509767,48.540107 C72.1136933,48.3917112 72.24589,48.3175134 72.4475668,48.3175134 C72.5029049,48.3175134 72.5668512,48.322861 72.6394057,48.3335561 L72.6394057,48.3335561 L72.6467841,47.7760695 C72.5951352,47.7586898 72.539797,47.75 72.4807697,47.75 C72.2913902,47.75 72.143207,47.8495989 72.0362199,48.0487968 L72.0362199,48.0487968 L72.021463,47.790107 L71.5178859,47.790107 L71.5178859,49.959893 L72.0509767,49.959893 Z M73.7446163,50 C73.9106308,50 74.0618884,49.9655749 74.1983891,49.8967246 C74.3348899,49.8278743 74.4431067,49.7319519 74.5230396,49.6089572 L74.5230396,49.6089572 L74.2611057,49.290107 C74.1455105,49.4518717 73.9850298,49.532754 73.7796638,49.532754 C73.6468522,49.532754 73.5370982,49.4899733 73.4504018,49.4044118 C73.3637054,49.3188503 73.311749,49.2052139 73.2945327,49.0635027 L73.2945327,49.0635027 L74.5654655,49.0635027 L74.5654655,48.8268717 C74.5654655,48.4832888 74.4870698,48.2179144 74.3302784,48.0307487 C74.173487,47.8435829 73.9585905,47.75 73.6855889,47.75 C73.5035879,47.75 73.3415701,47.7964572 73.1995355,47.8893717 C73.0575009,47.9822861 72.9477469,48.114639 72.8702735,48.2864305 C72.7928001,48.4582219 72.7540634,48.6530749 72.7540634,48.8709893 L72.7540634,48.8709893 L72.7540634,48.927139 C72.7540634,49.2520053 72.8459862,49.5120321 73.0298319,49.7072193 C73.2136775,49.9024064 73.451939,50 73.7446163,50 Z M74.0415977,48.6684492 L73.3000665,48.6684492 C73.3185125,48.5240642 73.360631,48.4131016 73.4264219,48.3355615 C73.4922129,48.2580214 73.577987,48.2192513 73.6837443,48.2192513 C73.7968801,48.2192513 73.8841914,48.2543449 73.9456783,48.3245321 C74.0071651,48.3947193 74.0391382,48.493984 74.0415977,48.6223262 L74.0415977,48.6223262 L74.0415977,48.6684492 Z M75.4674774,50 C75.6740732,50 75.8419322,49.9217914 75.9710546,49.7653743 C75.9821222,49.8429144 75.9999534,49.907754 76.0245481,49.959893 L76.0245481,49.959893 L76.5631728,49.959893 L76.5631728,49.9258021 C76.5115238,49.8201872 76.4850845,49.6644385 76.4838548,49.4585561 L76.4838548,49.4585561 L76.4838548,48.5180481 C76.4838548,48.2747326 76.4116077,48.0858957 76.2671137,47.9515374 C76.1226196,47.8171791 75.9273989,47.75 75.6814516,47.75 C75.5191263,47.75 75.3727877,47.7804144 75.2424356,47.8412433 C75.1120835,47.9020722 75.0112451,47.9859626 74.9399204,48.0929144 C74.8685956,48.1998663 74.8329333,48.3161765 74.8329333,48.4418449 L74.8329333,48.4418449 L75.3660241,48.4418449 C75.3660241,48.3602941 75.3915412,48.296123 75.4425752,48.2493316 C75.4936093,48.2025401 75.5640117,48.1791444 75.6537825,48.1791444 C75.7558507,48.1791444 75.8305572,48.2092246 75.877902,48.269385 C75.9252469,48.3295455 75.9489193,48.4097594 75.9489193,48.5100267 L75.9489193,48.5100267 L75.9489193,48.6343583 L75.7035868,48.6343583 C75.4072203,48.6356952 75.1806413,48.697861 75.0238499,48.8208556 C74.8670585,48.9438503 74.7886628,49.1203209 74.7886628,49.3502674 C74.7886628,49.5374332 74.8529165,49.6925134 74.981424,49.815508 C75.1099315,49.9385027 75.2719493,50 75.4674774,50 Z M75.5836875,49.5568182 C75.5025249,49.5568182 75.4385786,49.5334225 75.3918486,49.486631 C75.3451186,49.4398396 75.3217536,49.3803476 75.3217536,49.3081551 L75.3217536,49.3081551 L75.3235982,49.2740642 C75.3408145,49.0735294 75.4828491,48.973262 75.749702,48.973262 L75.749702,48.973262 L75.9489193,48.973262 L75.9489193,49.3462567 C75.9169462,49.4104278 75.8677567,49.4615642 75.8013509,49.4996658 C75.7349451,49.5377674 75.6623907,49.5568182 75.5836875,49.5568182 Z M77.5703271,50 C77.6810034,50 77.7886054,49.9826203 77.893133,49.947861 L77.893133,49.947861 L77.893133,49.5086898 C77.8476327,49.5180481 77.7953689,49.5227273 77.7363416,49.5227273 C77.6564087,49.5227273 77.6023003,49.5053476 77.5740163,49.4705882 C77.5457324,49.4358289 77.5315904,49.3783422 77.5315904,49.2981283 L77.5315904,49.2981283 L77.5315904,48.2152406 L77.8728424,48.2152406 L77.8728424,47.790107 L77.5315904,47.790107 L77.5315904,47.2566845 L76.9984996,47.2566845 L76.9984996,47.790107 L76.707052,47.790107 L76.707052,48.2152406 L76.9984996,48.2152406 L76.9984996,49.3843583 C77.005878,49.7947861 77.1964872,50 77.5703271,50 Z M79.0884371,50 C79.2544515,50 79.4057091,49.9655749 79.5422099,49.8967246 C79.6787107,49.8278743 79.7869275,49.7319519 79.8668604,49.6089572 L79.8668604,49.6089572 L79.6049265,49.290107 C79.4893312,49.4518717 79.3288506,49.532754 79.1234846,49.532754 C78.990673,49.532754 78.880919,49.4899733 78.7942226,49.4044118 C78.7075261,49.3188503 78.6555697,49.2052139 78.6383534,49.0635027 L78.6383534,49.0635027 L79.9092863,49.0635027 L79.9092863,48.8268717 C79.9092863,48.4832888 79.8308906,48.2179144 79.6740992,48.0307487 C79.5173077,47.8435829 79.3024112,47.75 79.0294097,47.75 C78.8474087,47.75 78.6853909,47.7964572 78.5433563,47.8893717 C78.4013217,47.9822861 78.2915677,48.114639 78.2140943,48.2864305 C78.1366209,48.4582219 78.0978842,48.6530749 78.0978842,48.8709893 L78.0978842,48.8709893 L78.0978842,48.927139 C78.0978842,49.2520053 78.189807,49.5120321 78.3736526,49.7072193 C78.5574982,49.9024064 78.7957597,50 79.0884371,50 Z M79.3854185,48.6684492 L78.6438873,48.6684492 C78.6623333,48.5240642 78.7044518,48.4131016 78.7702427,48.3355615 C78.8360336,48.2580214 78.9218077,48.2192513 79.0275651,48.2192513 C79.1407009,48.2192513 79.2280122,48.2543449 79.289499,48.3245321 C79.3509858,48.3947193 79.382959,48.493984 79.3854185,48.6223262 L79.3854185,48.6223262 L79.3854185,48.6684492 Z M81.5491402,49.959893 L81.7336007,49.3582888 L82.7038629,49.3582888 L82.890168,49.959893 L83.478597,49.959893 L82.4732873,47.040107 L81.9604871,47.040107 L80.9607112,49.959893 L81.5491402,49.959893 Z M82.5544499,48.8709893 L81.8830137,48.8709893 L82.2168872,47.7780749 L82.5544499,48.8709893 Z M84.5337111,50 C84.6861984,50 84.8254661,49.9662433 84.9515141,49.8987299 C85.0775621,49.8312166 85.1768634,49.7362968 85.2494178,49.6139706 C85.3219723,49.4916444 85.3588644,49.3569519 85.3600941,49.209893 L85.3600941,49.209893 L84.8602062,49.209893 C84.8577467,49.3074866 84.8257736,49.3856952 84.7642867,49.4445187 C84.7027999,49.5033422 84.622867,49.532754 84.5244881,49.532754 C84.3965955,49.532754 84.3012909,49.4839572 84.2385743,49.3863636 C84.1758577,49.2887701 84.1444994,49.1283422 84.1444994,48.9050802 L84.1444994,48.9050802 L84.1444994,48.8449198 C84.1444994,48.6243316 84.1761652,48.4649064 84.2394966,48.3666444 C84.302828,48.2683824 84.3965955,48.2192513 84.5207989,48.2192513 C84.6216373,48.2192513 84.7027999,48.2543449 84.7642867,48.3245321 C84.8257736,48.3947193 84.8577467,48.4859626 84.8602062,48.598262 L84.8602062,48.598262 L85.3600941,48.598262 C85.3576347,48.3415775 85.2810836,48.1360294 85.1304408,47.9816176 C84.9797981,47.8272059 84.7796584,47.75 84.5300219,47.75 C84.244723,47.75 84.020296,47.8495989 83.856741,48.0487968 C83.6931861,48.2479947 83.6114086,48.5147059 83.6114086,48.8489305 L83.6114086,48.8489305 L83.6114086,48.8870321 C83.6114086,49.2346257 83.6938009,49.5070187 83.8585857,49.7042112 C84.0233704,49.9014037 84.2484122,50 84.5337111,50 Z M86.5037493,50 C86.6562366,50 86.7955043,49.9662433 86.9215523,49.8987299 C87.0476003,49.8312166 87.1469015,49.7362968 87.219456,49.6139706 C87.2920105,49.4916444 87.3289026,49.3569519 87.3301323,49.209893 L87.3301323,49.209893 L86.8302443,49.209893 C86.8277849,49.3074866 86.7958117,49.3856952 86.7343249,49.4445187 C86.6728381,49.5033422 86.5929052,49.532754 86.4945262,49.532754 C86.3666336,49.532754 86.271329,49.4839572 86.2086125,49.3863636 C86.1458959,49.2887701 86.1145376,49.1283422 86.1145376,48.9050802 L86.1145376,48.9050802 L86.1145376,48.8449198 C86.1145376,48.6243316 86.1462033,48.4649064 86.2095348,48.3666444 C86.2728662,48.2683824 86.3666336,48.2192513 86.490837,48.2192513 C86.5916754,48.2192513 86.6728381,48.2543449 86.7343249,48.3245321 C86.7958117,48.3947193 86.8277849,48.4859626 86.8302443,48.598262 L86.8302443,48.598262 L87.3301323,48.598262 C87.3276728,48.3415775 87.2511217,48.1360294 87.100479,47.9816176 C86.9498362,47.8272059 86.7496966,47.75 86.50006,47.75 C86.2147611,47.75 85.9903342,47.8495989 85.8267792,48.0487968 C85.6632242,48.2479947 85.5814467,48.5147059 85.5814467,48.8489305 L85.5814467,48.8489305 L85.5814467,48.8870321 C85.5814467,49.2346257 85.6638391,49.5070187 85.8286238,49.7042112 C85.9934085,49.9014037 86.2184503,50 86.5037493,50 Z M88.4977673,50 C88.7855257,50 89.0148716,49.8993984 89.185805,49.6981952 C89.3567384,49.496992 89.4422051,49.2299465 89.4422051,48.8970588 L89.4422051,48.8970588 L89.4385159,48.7486631 C89.4188401,48.4411765 89.3238429,48.197861 89.1535244,48.0187166 C88.9832058,47.8395722 88.7633904,47.75 88.4940781,47.75 C88.3046986,47.75 88.1383767,47.796123 87.9951124,47.888369 C87.8518481,47.980615 87.7420941,48.1109626 87.6658504,48.2794118 C87.5896067,48.447861 87.5514849,48.6397059 87.5514849,48.8549465 L87.5514849,48.8549465 L87.5514849,48.881016 C87.5514849,49.2259358 87.637259,49.4986631 87.8088073,49.6991979 C87.9803556,49.8997326 88.2100089,50 88.4977673,50 Z M88.4977673,49.532754 C88.3649557,49.532754 88.2628876,49.4782754 88.1915629,49.3693182 C88.1202381,49.260361 88.0845758,49.1029412 88.0845758,48.8970588 C88.0845758,48.6657754 88.1202381,48.4949866 88.1915629,48.3846925 C88.2628876,48.2743984 88.363726,48.2192513 88.4940781,48.2192513 C88.6256599,48.2192513 88.727728,48.2747326 88.8002825,48.3856952 C88.872837,48.4966578 88.9091142,48.6530749 88.9091142,48.8549465 C88.9091142,49.0915775 88.872837,49.2637032 88.8002825,49.3713235 C88.727728,49.4789439 88.6268896,49.532754 88.4977673,49.532754 Z M90.4198457,50 C90.652266,50 90.834267,49.9131016 90.9658488,49.7393048 L90.9658488,49.7393048 L90.9806057,49.959893 L91.4823382,49.959893 L91.4823382,47.790107 L90.9474028,47.790107 L90.9474028,49.3262032 C90.8797672,49.4625668 90.7555638,49.5307487 90.5747925,49.5307487 C90.3854131,49.5307487 90.2907234,49.4177807 90.2907234,49.1918449 L90.2907234,49.1918449 L90.2907234,47.790107 L89.7576325,47.790107 L89.7576325,49.2118984 C89.760092,49.4699198 89.8175822,49.6657754 89.9301031,49.7994652 C90.042624,49.9331551 90.2058715,50 90.4198457,50 Z M92.4064853,49.959893 L92.4064853,48.4298128 C92.4814993,48.2907754 92.5940202,48.2212567 92.7440481,48.2212567 C92.8584136,48.2212567 92.9401911,48.2489973 92.9893805,48.3044786 C93.03857,48.3599599 93.0631647,48.4491979 93.0631647,48.5721925 L93.0631647,48.5721925 L93.0631647,49.959893 L93.5962556,49.959893 L93.5962556,48.5581551 C93.5937961,48.2894385 93.5409174,48.0875668 93.4376195,47.9525401 C93.3343217,47.8175134 93.1769154,47.75 92.9654007,47.75 C92.725602,47.75 92.534378,47.8469251 92.3917285,48.0407754 L92.3917285,48.0407754 L92.3751271,47.790107 L91.8733945,47.790107 L91.8733945,49.959893 L92.4064853,49.959893 Z M94.6771941,50 C94.7878704,50 94.8954724,49.9826203 95,49.947861 L95,49.947861 L95,49.5086898 C94.9544997,49.5180481 94.9022359,49.5227273 94.8432086,49.5227273 C94.7632757,49.5227273 94.7091673,49.5053476 94.6808833,49.4705882 C94.6525994,49.4358289 94.6384574,49.3783422 94.6384574,49.2981283 L94.6384574,49.2981283 L94.6384574,48.2152406 L94.9797093,48.2152406 L94.9797093,47.790107 L94.6384574,47.790107 L94.6384574,47.2566845 L94.1053666,47.2566845 L94.1053666,47.790107 L93.813919,47.790107 L93.813919,48.2152406 L94.1053666,48.2152406 L94.1053666,49.3843583 C94.112745,49.7947861 94.3033542,50 94.6771941,50 Z" id="CreateAccount" fill="#34336C" fill-rule="nonzero"></path>
                    <path d="M90.6204656,115 L70.3795344,115 C70.1698019,115 70,114.819946 70,114.59755 L70,110.40245 C70,110.180054 70.1698019,110 70.3795344,110 L90.6204656,110 C90.8301981,110 91,110.180054 91,110.40245 L91,114.59755 C91,114.819946 90.8301981,115 90.6204656,115" id="Fill-36" fill="#BD3D61"></path>
                    <text id="Register" font-family="LucidaGrande, Lucida Grande" font-size="4.4893" font-weight="normal" letter-spacing="0.01840613" fill="#F3F4E9">
                        <tspan x="77" y="113">R</tspan>
                        <tspan x="79.8570992" y="113">e</tspan>
                        <tspan x="77" y="118" letter-spacing="-0.02738473">g</tspan>
                        <tspan x="79.7718516" y="118">is</tspan>
                        <tspan x="77" y="123" letter-spacing="-0.0269358">t</tspan>
                        <tspan x="78.6521676" y="123">er</tspan>
                    </text>
                    <g id="Group-129" transform="translate(0.000000, 58.000000)">
                        <path d="M99.6181278,5.79194897 L64.2056174,5.79194897 C63.6292042,5.79194897 63.161791,5.32437695 63.161791,4.7473893 L63.161791,1.18399835 C63.161791,0.6073893 63.6292042,0.139438683 64.2056174,0.139438683 L99.6181278,0.139438683 C100.194919,0.139438683 100.662333,0.6073893 100.662333,1.18399835 L100.662333,4.7473893 C100.662333,5.32437695 100.194919,5.79194897 99.6181278,5.79194897 Z" id="Stroke-38" stroke="#34336C" stroke-width="0.5"></path>
                        <path d="M99.6181278,18.4222996 L64.2056174,18.4222996 C63.6292042,18.4222996 63.161791,17.9547276 63.161791,17.3777399 L63.161791,13.814349 C63.161791,13.2373613 63.6292042,12.7697893 64.2056174,12.7697893 L99.6181278,12.7697893 C100.194919,12.7697893 100.662333,13.2373613 100.662333,13.814349 L100.662333,17.3777399 C100.662333,17.9547276 100.194919,18.4222996 99.6181278,18.4222996 Z" id="Stroke-40" stroke="#34336C" stroke-width="0.5"></path>
                        <path d="M99.6181278,31.7071753 L64.2056174,31.7071753 C63.6292042,31.7071753 63.161791,31.2396033 63.161791,30.6626156 L63.161791,27.0992247 C63.161791,26.522237 63.6292042,26.054665 64.2056174,26.054665 L99.6181278,26.054665 C100.194919,26.054665 100.662333,26.522237 100.662333,27.0992247 L100.662333,30.6626156 C100.662333,31.2396033 100.194919,31.7071753 99.6181278,31.7071753 Z" id="Stroke-42" stroke="#34336C" stroke-width="0.5"></path>
                        <path d="M99.6181278,45.0561103 L64.2056174,45.0561103 C63.6292042,45.0561103 63.161791,44.5885383 63.161791,44.0115506 L63.161791,40.4481597 C63.161791,39.871172 63.6292042,39.4036 64.2056174,39.4036 L99.6181278,39.4036 C100.194919,39.4036 100.662333,39.871172 100.662333,40.4481597 L100.662333,44.0115506 C100.662333,44.5885383 100.194919,45.0561103 99.6181278,45.0561103 Z" id="Stroke-44" stroke="#34336C" stroke-width="0.5"></path>
                        <path d="M99.6376569,91.2018337 C99.6376569,90.7611424 88.8375736,90.4037432 75.5145944,90.4037432 C62.1919938,90.4037432 51.3919104,90.7611424 51.3919104,91.2018337 C51.3919104,91.6425251 62.1919938,91.9999243 75.5145944,91.9999243 C88.8375736,91.9999243 99.6376569,91.6425251 99.6376569,91.2018337" id="Fill-46" fill="#6D55B1"></path>
                        <path d="M78.0623937,40.1437267 C78.0623937,40.1437267 80.4596368,43.8468214 81.002366,42.2419325 C81.5450951,40.6374222 81.8770153,39.6553317 81.8770153,39.6553317 C81.8770153,39.6553317 81.1965222,38.5388379 80.8358382,38.8826074 C80.4588799,39.241521 79.9698937,38.5888132 79.9698937,38.5888132 L78.0623937,40.1437267 Z" id="Fill-48" fill="#FFBB9A"></path>
                        <path d="M89.9106559,20.9937942 L90.9011177,15.2401975 C91.551333,15.0304527 92.2200934,14.5280494 91.9911177,13.7504033 C91.8768191,13.3623374 91.5725274,13.1563786 91.2148712,13.0212181 C91.0797566,12.970107 90.3875309,12.7713416 90.3390865,13.0382551 C90.3398434,13.0344691 90.7160448,10.9646584 90.7160448,10.9646584 L83.9705344,7.70831276 C83.9705344,7.70831276 83.3558955,11.8380905 83.3487045,11.8861728 C83.3581663,11.8218107 82.6928122,11.672642 82.6031142,11.682107 C82.2640031,11.7180741 81.9339753,12.0342058 81.8007531,12.3310288 C81.4499094,13.1135967 82.129267,14.1036379 82.9766663,14.1168889 C82.9766663,14.1168889 83.0924788,15.9697613 83.5216663,16.6270123 C83.9512323,17.2842634 85.9344267,17.7385844 85.9344267,17.7385844 L85.7168052,20.2434074 L89.9106559,20.9937942 Z" id="Fill-50" fill="#FFBB9A"></path>
                        <path d="M92.1889451,21.4653416 C89.1407299,20.6100823 84.8598306,19.8570453 84.8598306,19.8570453 L82.019775,40.0898519 L93.9844174,39.7203374 L92.1889451,21.4653416 Z" id="Fill-52" fill="#FFAB27"></path>
                        <path d="M92.1889451,21.4653416 C96.168959,22.5083868 100.098258,23.2962551 104.190678,23.7199095 C103.279317,19.5730947 102.78049,16.4026914 101.589438,12.8801893 C102.726747,12.5924527 104.94573,12.02493 106.083039,11.7368148 C106.083039,11.7368148 109.851108,24.8693416 108.707365,26.6203704 C106.761261,29.5999588 97.0670736,27.6380494 97.0670736,27.6380494 L92.4815042,26.8206502 L92.1889451,21.4653416 Z" id="Fill-54" fill="#FFAB27"></path>
                        <path d="M71.6975128,25.9198831 C71.6975128,25.9198831 84.5405892,19.6351095 85.1310059,19.8668132 C85.7214226,20.0985169 86.2228983,23.0114716 86.2228983,23.0114716 C86.2228983,23.0114716 81.566933,25.9744016 74.3676344,29.3223687 L80.9159608,38.2387967 L77.6539087,40.579307 C77.6539087,40.579307 68.6621656,30.4699078 69.003926,28.3807885 C69.2673427,26.7683276 71.6975128,25.9198831 71.6975128,25.9198831" id="Fill-56" fill="#FFAB27"></path>
                        <path d="M105.889223,11.7858815 C105.889223,11.7858815 105.357848,8.0691572 105.294265,7.96314897 C105.230682,7.85714074 105.230682,7.20102551 104.276553,7.35928066 C104.276553,7.35928066 104.21297,6.1814535 103.661914,6.16025185 C103.11048,6.13905021 102.495463,6.28746173 102.495463,6.28746173 C102.495463,6.28746173 101.875147,3.26812016 101.472452,2.74451523 C101.032668,2.17282798 100.41765,3.67890206 101.371779,7.35928066 C101.371779,7.35928066 101.900505,9.8625893 101.742682,9.9545893 C101.316143,10.20333 100.729133,10.1582765 99.9169316,8.76919012 C99.0543934,7.29378272 97.9795323,7.7935358 98.5093934,8.93880329 C99.039633,10.0840708 99.7909003,11.5659144 100.278373,11.9687457 C100.766223,12.371577 101.796046,12.3110008 101.796046,12.3110008 L101.947435,12.7895523 L105.889223,11.7858815 Z" id="Fill-58" fill="#FFBB9A"></path>
                        <path d="M93.9844931,39.7204889 C92.5436493,61.6153531 87.6503819,88.636851 87.6503819,88.636851 L92.4425972,90.6657728 L82.2378507,90.6657728 L88.9311319,42.8821844 L86.6383472,42.8821844 L69.7077708,90.6964395 L59.5143785,90.6964395 L65.3133299,88.5811967 L82.2378507,38.5347111 L93.9844931,39.7204889 Z" id="Fill-60" fill="#5F4456"></path>
                        <path d="M91.5301007,13.1739078 C92.1004583,12.0328049 92.7673264,9.26409712 91.035816,8.49440165 C90.1373229,8.09459918 89.2055243,7.51950453 88.5174618,7.05874733 C87.4619028,6.35189959 86.1501181,6.07135638 84.9265174,6.41096132 C84.7300903,6.46547984 84.5382049,6.53514239 84.3584306,6.62373498 C83.1495903,7.21738107 82.3332257,10.4301877 82.3332257,10.4301877 L83.5208715,10.7281465 C83.5208715,10.7281465 84.8459028,16.6218255 87.0255243,17.8329695 L89.2021181,18.2941053 L90.4904375,18.5833564 L91.5301007,13.1739078 Z" id="Fill-62" fill="#D06940"></path>
                        <path d="M89.9514174,8.0856642 C89.9605007,7.73280823 89.9468757,7.38146667 89.9105424,7.0301251 C89.8957819,6.88739259 89.670591,6.88587819 89.6853514,7.0301251 C89.7216847,7.38146667 89.7353097,7.73280823 89.7262264,8.0856642 C89.7224417,8.23066831 89.9476326,8.23066831 89.9514174,8.0856642" id="Fill-64" fill="#D06940"></path>
                        <path d="M89.9515309,8.13022551 C90.100649,8.03557531 90.1502288,7.86369053 90.2319788,7.71452181 C90.3364372,7.5248428 90.4560344,7.34576461 90.5873642,7.17425844 C90.6755483,7.05878519 90.4798781,6.94671934 90.3928295,7.06029959 C90.2891281,7.19583868 90.1922392,7.33554239 90.1051906,7.48243951 C90.0313885,7.60662058 89.9621281,7.85687572 89.8379892,7.93562469 C89.7157427,8.01323786 89.8285274,8.20821728 89.9515309,8.13022551" id="Fill-66" fill="#D06940"></path>
                        <g id="Group-70" transform="translate(0.000000, 84.427984)">
                            <mask id="mask-2" fill="white">
                                <use xlink:href="#path-1"></use>
                            </mask>
                            <g id="Clip-69"></g>
                            <path d="M48.2459358,0.965129218 C48.2459358,0.52443786 37.4458524,0.167038683 24.1228733,0.167038683 C10.8002726,0.167038683 -0.000189236111,0.52443786 -0.000189236111,0.965129218 C-0.000189236111,1.40582058 10.8002726,1.76321975 24.1228733,1.76321975 C37.4458524,1.76321975 48.2459358,1.40582058 48.2459358,0.965129218" id="Fill-68" fill="#6D55B1" mask="url(#mask-2)"></path>
                        </g>
                        <path d="M32.4224285,1.61719342 C31.9697757,1.51307819 31.5470222,1.49755556 30.9683382,1.44379424 C30.1050431,1.36315226 29.3174424,1.92272428 28.6638208,2.49289712 C28.0105778,3.06269136 27.5393799,3.81080658 27.1166264,4.56800823 C26.6844111,5.34148971 26.2809597,6.23763786 26.53605,7.08646091 C26.6011472,7.30226337 26.7082549,7.51238683 26.7052271,7.73803292 C26.6961438,8.43958025 25.7291472,8.70460082 25.4267479,9.3376214 C25.0528174,10.1205679 25.8158174,11.1745926 25.2988243,11.8704609 C25.0403278,12.2180165 24.5433937,12.3274321 24.2989007,12.6844527 C24.1070153,12.9649959 24.1149632,13.3314815 24.1301021,13.6710864 C24.1331299,13.7411276 24.1395639,13.8187407 24.1910361,13.8660658 C24.2338035,13.9054403 24.2962514,13.9130123 24.3541576,13.9186914 C27.1173833,14.1844691 29.8518451,13.5866584 32.6150708,13.8524362 C32.9485049,13.8846173 33.2849667,13.9164198 33.6176437,13.8774239 C34.0956542,13.8210123 34.5426299,13.6207325 34.9805222,13.4212099 C37.3686819,12.3327325 39.759491,12.0502963 42.0931507,10.8489959 C42.1907965,10.798642 42.2948764,10.7422305 42.3436993,10.6437942 C42.3815465,10.5680741 42.3804111,10.4794815 42.3717062,10.3958107 C42.3092583,9.78058436 41.8547132,9.22290535 41.2650535,9.03776955 C40.6568486,8.84695473 39.9279111,9.0139177 39.4203799,8.62850206 C39.0540187,8.35060905 38.921175,7.86221399 38.8727306,7.4048642 C38.7750847,6.47577778 38.8806785,5.40093004 38.2081333,4.75238683 C37.6816785,4.24468313 36.83655,4.18940741 36.3078243,3.68397531 C36.0065604,3.39586008 35.8441958,2.99530041 35.6008382,2.65683128 C34.8893104,1.66565432 33.6770639,1.09055967 32.4224285,1.61719342" id="Fill-71" fill="#5F4456"></path>
                        <path d="M27.8049538,33.5561103 L12.4034052,82.3127029 L6.34141563,84.6509416 L15.3373219,84.6509416 L32.7269851,38.7160609 C32.8386344,38.4211309 33.1209747,38.2261514 33.4358635,38.2261514 C33.886624,38.2261514 34.2378462,38.6172461 34.1901587,39.0655095 L29.6079955,84.6509416 L38.7140372,84.6509416 L32.6338809,82.639814 C32.6338809,82.639814 38.2984747,56.1328346 39.5591656,47.8392049 C40.8202351,39.5455753 38.9925927,33.6848346 38.9925927,33.6848346 C38.9925927,33.6848346 33.0895615,31.8122749 27.8049538,33.5561103" id="Fill-73" fill="#49648F"></path>
                        <path d="M27.9853715,16.0078486 C29.3970729,14.5328198 35.009059,14.362828 37.0380486,15.1961284 C39.0666597,16.0294288 42.7995313,26.8100872 42.7995313,26.8100872 L39.0870972,28.268079 L36.7833368,19.2554864 L29.5636007,18.2605235 L27.9853715,16.0078486 Z" id="Fill-75" fill="#FC816C"></path>
                        <path d="M37.4709451,20.5792642 C37.4709451,20.5792642 38.1033722,19.0868198 38.2381083,17.935116 C38.3732229,16.7834123 36.8074833,15.6570749 36.8074833,15.6570749 L28.3134313,17.8590173 L28.8414,22.9205317 L27.595091,33.1472971 L38.3883618,33.548614 L37.3036604,20.6216675" id="Fill-77" fill="#FC816C"></path>
                        <path d="M28.9602024,20.8708247 C28.9242476,20.8708247 28.8875358,20.8598453 28.856501,20.836372 C28.7804281,20.7788247 28.7649108,20.6705449 28.8220601,20.5944461 L29.4257233,19.7902979 C29.4828726,19.7138206 29.5911156,19.6982979 29.6671885,19.7558453 C29.7436399,19.813014 29.7587788,19.9212938 29.701251,19.9973926 L29.0983448,20.8015407 C29.0642823,20.8469728 29.0124316,20.8708247 28.9602024,20.8708247" id="Fill-79" fill="#3196BD"></path>
                        <path d="M23.5684115,34.8895802 C24.2174913,34.5117366 24.8665712,34.1335144 25.515651,33.7556708" id="Fill-81" fill="#6DCBEE"></path>
                        <path d="M31.9763611,14.7904576 C31.8582778,13.6618486 32.4350694,12.5169597 30.6149965,11.7877745 C28.1061042,10.7822107 27.5679167,2.12739588 32.1001215,2.10765982 C36.6327049,2.0884 36.4101632,7.80148642 36.392375,9.49761811 C36.3742083,11.1937498 34.8811354,11.6257333 34.5079618,12.2398239 C34.1347882,12.8535358 34.4568681,14.7904576 34.4568681,14.7904576 L31.9763611,14.7904576 Z" id="Fill-83" fill="#FFBB9A"></path>
                        <path d="M29.4049451,8.23559012 C29.4049451,8.79137613 29.0154972,9.24228971 28.5348375,9.24228971 C28.0541778,9.24228971 27.6647299,8.79137613 27.6647299,8.23559012 C27.6647299,7.67980412 28.0541778,7.22889053 28.5348375,7.22889053 C29.0154972,7.22889053 29.4049451,7.67980412 29.4049451,8.23559012" id="Fill-85" fill="#FFBB9A"></path>
                        <path d="M37.5362694,7.45786831 C37.5362694,8.01365432 37.1468215,8.4645679 36.6661618,8.4645679 C36.1855021,8.4645679 35.7960542,8.01365432 35.7960542,7.45786831 C35.7960542,6.9020823 36.1855021,6.45116872 36.6661618,6.45116872 C37.1468215,6.45116872 37.5362694,6.9020823 37.5362694,7.45786831" id="Fill-87" fill="#FFBB9A"></path>
                        <path d="M9.61342153,47.3314255 C6.71659514,47.3314255 4.368175,44.9822074 4.368175,42.0843967 C4.368175,39.186586 6.71659514,36.8373679 9.61342153,36.8373679 C12.5102479,36.8373679 14.8586681,39.186586 14.8586681,42.0843967 C14.8586681,44.9822074 12.5102479,47.3314255 9.61342153,47.3314255 L9.61342153,47.3314255 Z M55.4320257,25.7837383 L54.0880708,22.3770881 L16.0894597,37.2992609 C14.6228799,35.3165284 12.2687826,34.0304214 9.61342153,34.0304214 C5.16675139,34.0304214 1.56218194,37.6362156 1.56218194,42.0843967 C1.56218194,46.5325778 5.16675139,50.138372 9.61342153,50.138372 C14.0600917,50.138372 17.6646611,46.5325778 17.6646611,42.0843967 C17.6646611,41.7534996 17.6427097,41.4282815 17.6037271,41.1079852 L46.5417132,29.3853679 L48.1309181,32.8817465 L51.66055,31.2643638 L50.4180257,28.4820263 L51.5617688,27.876265 L52.9072375,30.5529728 L55.4320257,29.2043967 L54.0335708,26.3505037 L55.4320257,25.7837383 Z" id="Fill-89" fill="#00AB45"></path>
                        <path d="M27.9853715,16.0078486 C27.9853715,16.0078486 18.4047257,24.5411325 18.3521181,26.1248198 C18.2995104,27.7088856 23.9970313,36.0399967 23.9970313,36.0399967 L26.8446563,34.238614 L22.8559375,26.769577 L29.3456007,20.5790749 C29.3456007,20.5790749 29.5579236,22.0173794 30.0771875,22.4088527 L30.3659618,16.7143177 L27.9853715,16.0078486 Z" id="Fill-91" fill="#FC816C"></path>
                        <path d="M35.4828684,4.09820247 C34.2373163,4.16218601 28.717299,4.72440823 28.717299,4.72440823 C28.717299,4.72440823 29.5245802,1.40937942 32.1000837,1.27914074 C35.4828684,1.10839177 35.4828684,4.09820247 35.4828684,4.09820247" id="Fill-93" fill="#5F4456"></path>
                        <path d="M28.7241872,7.59851852 C28.7241872,7.59851852 33.1973503,7.17940741 33.9807878,5.06757202 C33.9807878,5.06757202 35.4659128,6.96663374 36.3360205,6.87122634 C36.3360205,6.87122634 36.478326,4.37246091 35.9374892,4.03437037 C35.3966524,3.69627984 28.534951,4.39366255 28.534951,4.39366255 C28.534951,4.39366255 28.357826,5.99135802 28.7241872,7.59851852" id="Fill-95" fill="#5F4456"></path>
                        <path d="M24.1165528,35.9386074 C24.1165528,35.9386074 25.3386396,38.5157432 25.4086569,38.5785909 C25.4786743,38.6410601 25.6262785,39.1169613 26.2829278,38.7872 C26.2829278,38.7872 26.5940319,39.6276938 26.9989972,39.5190354 C27.403584,39.4099984 27.8164972,39.1639078 27.8164972,39.1639078 C27.8164972,39.1639078 28.3073757,39.8177514 28.6710875,39.4720889 C29.0961118,39.0681218 28.6937958,38.6198584 28.3906396,38.1329778 C28.3906396,38.1329778 27.4437021,36.4357103 27.5375632,36.3338667 C27.7911396,36.0567309 28.2271396,35.9575374 29.1290389,36.7825086 C30.0869521,37.6589695 30.7545771,37.054344 30.1119313,36.3425745 C29.4696639,35.6308049 28.5912299,34.7248132 28.146525,34.5423276 C27.7021986,34.359842 26.968341,34.635842 26.968341,34.635842 L26.7510979,34.3227391 L24.1165528,35.9386074 Z" id="Fill-97" fill="#FFBB9A"></path>
                        <path d="M43.7040042,30.5348 C43.7040042,30.5348 43.017834,32.48573 41.819591,32.8132198 C40.6209694,33.1407095 33.9011951,34.505944 33.9011951,34.505944 L33.9011951,31.8474091 L43.7040042,30.5348 Z" id="Fill-99" fill="#FC816C"></path>
                        <path d="M33.901233,32.1660395 L33.3891601,32.1660395 C33.3891601,32.1660395 33.274483,31.8063687 33.2018163,31.6882453 C32.9917642,31.3475045 30.1785802,30.9893481 30.2300524,31.3577267 C30.2819031,31.7261053 30.7443962,31.8169695 31.7363719,32.0005909 C31.7363719,32.0005909 28.0262087,32.9009037 28.3751601,33.1946979 C28.7241115,33.4888708 31.0384691,32.8130683 31.0384691,32.8130683 C31.0384691,32.8130683 28.5280628,33.6300889 28.7059448,34.1870107 C28.8077538,34.5057926 31.3518441,33.7557844 31.3518441,33.7557844 C31.3518441,33.7557844 28.7608233,34.6829778 29.2202885,34.9953235 C29.6793753,35.3076691 32.5444101,34.6042288 32.8199378,34.5057926 C33.0954656,34.4073564 33.2018163,33.874665 33.2018163,33.874665 L33.901233,33.7557844 L33.901233,32.1660395 Z" id="Fill-101" fill="#FFBB9A"></path>
                        <path d="M31.7889795,0.266156379 C31.8873823,0.676559671 31.9286358,1.18767078 32.1640455,1.54658436 C32.2613128,1.69499588 32.5016427,1.55642798 32.4036184,1.40650206 C32.1863753,1.07522634 32.1473927,0.572065844 32.0565594,0.192329218 C32.0149274,0.0189300412 31.7473476,0.0923786008 31.7889795,0.266156379" id="Fill-103" fill="#5F4456"></path>
                        <path d="M32.3919236,1.57195062 C32.5334722,1.31980247 32.6848611,1.07409053 32.8464687,0.834814815 C32.9467639,0.686403292 32.706434,0.54745679 32.6068958,0.69473251 C32.4452882,0.934386831 32.2938993,1.17972016 32.1523507,1.43186831 C32.0649236,1.58785185 32.3044965,1.72793416 32.3919236,1.57195062" id="Fill-105" fill="#5F4456"></path>
                        <path d="M32.928408,7.40607572 C32.9181892,7.72523621 32.9257587,8.0421251 32.9632274,8.35977119 C32.982151,8.52219095 32.9666337,8.81257778 33.0794184,8.93600165 C33.1437587,9.0064214 33.2788733,9.00187819 33.3606233,9.01437202 C33.6645365,9.06169712 33.9714774,9.0965284 34.2761476,9.13741728 C34.2598733,9.0980428 34.243599,9.05828971 34.2273247,9.01891523 C33.9676927,9.26538436 33.6883802,9.44635556 33.3598663,9.58530206 C33.2781163,9.62013333 33.3485122,9.73977119 33.4298837,9.70531852 C33.7697517,9.56145021 34.0581476,9.37063539 34.325349,9.11697284 C34.3737934,9.07116214 34.3314045,9.0060428 34.2761476,8.99847078 C33.9582309,8.95606749 33.3106649,8.99203457 33.145651,8.65621564 C32.9908559,8.34084115 33.0563316,7.74265185 33.0669288,7.40607572 C33.0699566,7.31672593 32.9314358,7.31672593 32.928408,7.40607572" id="Fill-107" fill="#FFA077"></path>
                        <path d="M34.3522205,8.36030123 C34.3923385,8.04379095 34.1909913,7.30324774 34.5895226,7.1499144 C34.944151,7.01399671 35.1674497,7.30892675 35.2230851,7.6080214 C35.2579045,7.79542881 35.2915885,7.98321481 35.325651,8.17100082 C35.3415469,8.25883621 35.4751476,8.22173333 35.4592517,8.13427654 C35.3756094,7.67389794 35.3559288,6.88754403 34.6701372,6.98105844 C34.032033,7.06813663 34.2647934,7.95330535 34.2136997,8.36030123 C34.2023455,8.44851523 34.3412448,8.44775802 34.3522205,8.36030123" id="Fill-109" fill="#55433D"></path>
                        <path d="M30.7733872,8.54971523 C30.8131267,8.23320494 30.6117795,7.49266173 31.0106892,7.3393284 C31.3649392,7.2034107 31.5886163,7.49834074 31.6442517,7.79705679 C31.6790712,7.9848428 31.7123767,8.17262881 31.7468177,8.36041481 C31.7627135,8.44825021 31.8963142,8.41076872 31.8804184,8.32369053 C31.796776,7.86331193 31.7770955,7.07695802 31.0913038,7.17047243 C30.4528212,7.25755062 30.6859601,8.14271934 30.6344878,8.54971523 C30.6235122,8.63792922 30.7624115,8.63717202 30.7733872,8.54971523" id="Fill-111" fill="#55433D"></path>
                        <path d="M31.7186215,9.3543177 C31.8677396,10.5086716 33.8214132,10.7399967 34.539375,10.0395852 C34.6033368,9.97711605 34.5053125,9.87905844 34.4413507,9.94152757 C33.8418507,10.5264658 31.9907431,10.3897909 31.8575208,9.3543177 C31.8461667,9.26686091 31.7072674,9.2657251 31.7186215,9.3543177" id="Fill-113" fill="#FFA077"></path>
                        <path d="M31.6909552,9.54812346 C31.7306948,9.42583539 31.8540767,9.34632922 31.9827573,9.36790947 C32.0698059,9.3826749 32.1072747,9.24902881 32.0194691,9.23426337 C31.8143372,9.1998107 31.6220733,9.31187654 31.5573545,9.51139918 C31.5293476,9.59620576 31.6633267,9.63293004 31.6909552,9.54812346" id="Fill-115" fill="#FFA077"></path>
                        <path d="M31.5172743,8.8943177 C31.5789653,9.04916543 31.3053299,9.30207078 30.8886319,9.39142058 C30.6869062,9.43647407 30.4760972,9.42928066 30.3580139,9.39179918 C30.2433368,9.3543177 30.1623438,9.31342881 30.1195764,9.24035885 C30.1010312,9.20325597 30.1021667,9.15668807 30.131309,9.10746996 C30.1596944,9.05787325 30.2160868,9.00827654 30.2853472,8.96890206 C30.4253819,8.89204609 30.5729861,8.83942058 30.7607083,8.79815309 C31.1240417,8.72091852 31.4559618,8.73757695 31.5172743,8.8943177" id="Fill-117" fill="#FF837A"></path>
                        <path d="M36.0672674,8.57693663 C36.1289583,8.73178436 35.8557014,8.98468971 35.438625,9.07403951 C35.2368993,9.119093 35.0260903,9.11227819 34.9080069,9.07441811 C34.7933299,9.03693663 34.7123368,8.99604774 34.6695694,8.92297778 C34.6510243,8.8858749 34.6521597,8.839307 34.6813021,8.79008889 C34.7096875,8.74049218 34.7660799,8.69089547 34.8353403,8.65152099 C34.975375,8.57466502 35.1229792,8.52203951 35.3107014,8.48077202 C35.6744132,8.40353745 36.0059549,8.42019588 36.0672674,8.57693663" id="Fill-119" fill="#FF837A"></path>
                        <path d="M28.4765906,7.71380247 C28.2040906,7.72326749 28.0587573,7.97768724 28.0829795,8.2324856 C28.1075802,8.49069136 28.2892469,8.68832099 28.5503927,8.70649383 C28.6393337,8.71293004 28.6389552,8.57398354 28.5503927,8.56792593 C28.1832747,8.54180247 28.0667052,7.8667572 28.4765906,7.85237037 C28.5655316,7.84934156 28.5659101,7.71077366 28.4765906,7.71380247" id="Fill-121" fill="#FFA077"></path>
                        <path d="M28.1061799,8.09236543 C28.2378882,8.25743539 28.4384785,8.34489218 28.648909,8.33126255 C28.7374715,8.32558354 28.7382285,8.18663704 28.648909,8.19269465 C28.4706486,8.20405267 28.315475,8.13363292 28.2042042,7.99430782 C28.1485688,7.92426667 28.0509229,8.02308148 28.1061799,8.09236543" id="Fill-123" fill="#FFA077"></path>
                        <path d="M36.5973556,7.95228313 C36.897484,8.02383868 37.0632549,7.75086749 37.1011021,7.49076872 C37.142734,7.2037893 36.966366,6.9255177 36.6613174,6.89787984 C36.5723764,6.88955062 36.5731333,7.02849712 36.6613174,7.03644774 C36.8558521,7.05424198 36.986425,7.2492214 36.9705292,7.43094979 C36.9546333,7.60699918 36.8660708,7.87391276 36.6340674,7.81863704 C36.5473972,7.79781399 36.5103069,7.93146008 36.5973556,7.95228313" id="Fill-125" fill="#FFA077"></path>
                        <path d="M36.6811872,7.54301564 C36.8121385,7.42489218 36.895024,7.27269465 36.9200031,7.09778107 C36.9324927,7.01070288 36.798892,6.9728428 36.7864024,7.06105679 C36.7640726,7.21439012 36.6982184,7.3412214 36.5831628,7.44495802 C36.5165517,7.50477695 36.6149545,7.60283457 36.6811872,7.54301564" id="Fill-127" fill="#FFA077"></path>
                    </g>
                </g>
            </g>
        </g>
    </g>
</svg>